# xmcd CD database file
#
# Track frame offsets:
#	150
#	23258
#	44142
#	64568
#	88220
#	109529
#	132372
#	152717
#	172782
#	195447
#	217410
#	236550
#	260845
#
# Disc length: 3747 seconds
#
# Revision: 4
# Processed by: cddbd v1.5.1PL0 Copyright (c) Steve Scherf et al.
# Submitted via: CDex 1.50Beta7
#
DISCID=b20ea10d
DTITLE=Alejandro Sanz - MTV Unplugged
DYEAR=2001
DGENRE=Latin
TTITLE0=Cuando nadie me ve
TTITLE1=Y sólo se me ocurre amarte
TTITLE2=Amiga mía
TTITLE3=Se le apago la luz
TTITLE4=Quisiera ser
TTITLE5=Aprendiz
TTITLE6=Quiero morir en tu veneno
TTITLE7=Como te echo de menos
TTITLE8=Corazón partío
TTITLE9=Siempre es de noche
TTITLE10=Toca para mi
TTITLE11=Lo que fui es lo que soy
TTITLE12=Todo es de color
EXTD=YEAR: 2001
EXTT0=
EXTT1=
EXTT2=
EXTT3=
EXTT4=
EXTT5=
EXTT6=
EXTT7=
EXTT8=
EXTT9=
EXTT10=
EXTT11=
EXTT12=
PLAYORDER=
